<svg xmlns="http://www.w3.org/2000/svg" height="512" viewBox="0 0 128 128" width="512"><path d="M115 84.08H13a1.75 1.75 0 0 0-1.75 1.75v17.946a1.75 1.75 0 0 0 1.75 1.75h102a1.75 1.75 0 0 0 1.75-1.75V85.83a1.75 1.75 0 0 0-1.75-1.75zm-1.75 17.946H102.2v-7.9a1.75 1.75 0 0 0-3.5 0v7.9h-8.648v-4.98a1.75 1.75 0 0 0-3.5 0v4.98H77.9v-7.9a1.75 1.75 0 0 0-3.5 0v7.9h-8.65v-4.98a1.75 1.75 0 0 0-3.5 0v4.98H53.6v-7.9a1.75 1.75 0 0 0-3.5 0v7.9h-8.652v-4.98a1.75 1.75 0 0 0-3.5 0v4.98H29.3v-7.9a1.75 1.75 0 0 0-3.5 0v7.9H14.75V87.58h98.5zM90.042 60.142a10.958 10.958 0 1 0-10.959-10.959 10.971 10.971 0 0 0 10.959 10.959zm0-18.417a7.458 7.458 0 1 1-7.459 7.458 7.467 7.467 0 0 1 7.459-7.458zM72.625 69.558h5.625a1.75 1.75 0 0 0 1.75-1.75v-5.625a1.75 1.75 0 0 0-1.75-1.75h-5.625a1.75 1.75 0 0 0-1.75 1.75v5.625a1.75 1.75 0 0 0 1.75 1.75zm1.75-5.625H76.5v2.125h-2.125zM13 72.533h44.917v1.608a1.75 1.75 0 0 0 1.75 1.75h30.375a26.708 26.708 0 1 0-26.709-26.708v11.25h-3.666a1.75 1.75 0 0 0-1.75 1.75v1.782H14.75v-.9a1.75 1.75 0 0 0-3.5 0v7.708a1.75 1.75 0 0 0 1.75 1.75zm53.833-23.35a23.208 23.208 0 1 1 23.209 23.209h-23.2zm-5.417 14.75h1.917v8.458h-1.916v-8.458zm-3.5 3.532v1.568H14.75v-1.568z"/></svg>